<?xml version="1.0" standalone="no"?>
<!DOCTYPE svg PUBLIC "-//W3C//DTD SVG 20010904//EN"
 "http://www.w3.org/TR/2001/REC-SVG-20010904/DTD/svg10.dtd">
<svg version="1.0" xmlns="http://www.w3.org/2000/svg"
 width="900.000000pt" height="900.000000pt" viewBox="0 0 900.000000 900.000000"
 preserveAspectRatio="xMidYMid meet">
<metadata>
Created by potrace 1.14, written by Peter Selinger 2001-2017
</metadata>
<g transform="translate(0.000000,900.000000) scale(0.100000,-0.100000)"
fill="#000000" stroke="none">
<path d="M0 4500 l0 -4500 4500 0 4500 0 0 4500 0 4500 -4500 0 -4500 0 0
-4500z m4915 3935 c53 -6 113 -14 329 -45 32 -5 80 -14 105 -19 25 -6 89 -20
141 -32 161 -36 454 -131 595 -193 144 -64 207 -94 310 -147 66 -34 132 -70
147 -80 14 -11 28 -19 31 -19 12 0 178 -108 295 -192 280 -201 543 -448 748
-703 26 -33 51 -62 54 -65 21 -18 236 -330 251 -365 5 -11 23 -40 39 -65 38
-60 187 -354 230 -455 18 -44 37 -84 42 -89 4 -6 8 -19 8 -31 0 -12 4 -25 9
-31 7 -7 52 -137 100 -289 20 -61 81 -312 91 -375 46 -277 70 -536 70 -769 0
-138 -10 -171 -54 -171 -51 0 -55 18 -61 271 -7 273 -28 467 -75 694 -18 82
-31 137 -73 296 -14 51 -62 194 -117 344 -36 99 -148 339 -210 450 -82 149
-147 250 -267 414 -36 50 -151 197 -169 216 -11 11 -34 38 -53 60 -115 136
-317 328 -496 470 -87 69 -398 285 -411 285 -2 0 -23 12 -45 26 -22 14 -105
57 -182 95 -78 39 -149 74 -158 79 -22 12 -200 83 -284 113 -195 71 -475 144
-665 172 -241 37 -350 45 -595 45 -377 0 -567 -21 -900 -100 -332 -79 -665
-210 -985 -386 -83 -46 -358 -224 -383 -248 -6 -6 -28 -23 -47 -36 -19 -13
-37 -27 -40 -30 -3 -3 -23 -18 -45 -35 -61 -45 -229 -198 -335 -305 -434 -438
-759 -992 -944 -1610 -34 -115 -73 -272 -86 -347 -5 -35 -15 -91 -20 -125 -28
-159 -42 -322 -47 -541 -6 -226 -7 -239 -27 -252 -30 -22 -53 -18 -72 11 -15
22 -16 50 -11 247 8 317 43 586 113 872 30 123 82 301 105 360 37 96 59 154
59 159 0 18 150 333 213 445 31 57 57 105 57 107 0 16 227 341 322 461 150
188 419 459 586 591 19 15 40 32 46 37 6 6 45 35 86 65 41 30 77 57 80 60 10
11 149 100 247 159 108 64 352 192 438 228 98 42 281 111 350 133 39 12 95 30
125 40 193 64 588 133 848 149 126 8 489 5 587 -4z m1785 -1113 c81 -86 214
-485 305 -917 30 -144 31 -145 77 -145 75 0 118 -43 118 -119 0 -32 -6 -45
-35 -70 -20 -17 -45 -31 -55 -31 -26 0 -26 -32 0 -153 27 -127 96 -541 110
-660 13 -115 17 -283 6 -314 -4 -12 -17 -25 -28 -29 -76 -24 -205 298 -329
821 -17 72 -35 143 -40 159 -5 16 -9 44 -9 61 0 32 -24 64 -38 51 -4 -4 -7
-52 -7 -105 0 -93 -2 -100 -30 -137 -16 -21 -37 -45 -47 -52 -9 -7 -23 -18
-30 -25 -13 -13 -134 -83 -178 -103 -162 -75 -408 -161 -433 -151 -22 8 -71
89 -111 184 -82 190 -97 208 -203 226 -57 9 -63 12 -48 23 9 7 41 16 70 19 81
11 82 13 63 92 -9 37 -19 85 -23 106 -3 21 -12 40 -19 43 -7 3 -52 -2 -102
-10 -80 -14 -154 -28 -404 -82 -68 -14 -733 -183 -805 -203 -16 -5 -64 -18
-105 -30 -189 -51 -386 -110 -575 -171 -88 -28 -173 -55 -190 -60 -85 -23
-452 -155 -464 -166 -12 -11 -10 -14 15 -20 44 -10 66 -34 60 -64 -9 -48 3
-50 104 -19 184 57 226 70 375 109 83 22 164 44 180 49 33 10 478 121 590 146
238 55 313 71 420 93 28 6 103 23 168 37 65 15 121 24 124 21 8 -8 -17 -36
-32 -36 -18 0 -143 -55 -300 -131 -54 -27 -105 -49 -111 -49 -7 0 -14 -4 -16
-8 -1 -5 -86 -50 -188 -101 -103 -52 -169 -90 -150 -86 19 3 49 12 65 20 17 7
64 28 105 45 41 18 109 48 150 67 41 19 102 46 135 60 33 14 74 31 90 38 299
128 488 184 657 192 123 7 153 -1 212 -56 57 -53 121 -205 194 -456 37 -127
42 -152 42 -199 0 -56 -25 -86 -97 -117 -145 -62 -531 -114 -788 -106 -167 5
-216 18 -310 81 -112 74 -235 124 -359 147 -78 13 -298 9 -690 -16 -763 -47
-707 -42 -740 -70 -14 -12 -39 -27 -54 -33 -33 -13 -217 -30 -418 -38 -180 -8
-208 -1 -276 67 -43 43 -53 48 -105 54 -67 7 -165 29 -225 51 -94 33 -103 78
-31 145 118 108 192 188 197 210 21 111 28 188 41 419 19 339 42 524 78 608
19 46 75 101 141 141 47 28 70 35 129 39 63 4 75 1 100 -18 25 -19 104 -169
122 -230 4 -14 18 -47 30 -75 13 -27 35 -81 50 -120 52 -132 123 -270 164
-316 56 -65 99 -83 175 -76 53 5 189 52 221 77 6 4 55 32 110 61 192 101 269
148 445 270 362 251 531 350 650 383 14 4 34 11 45 16 41 18 130 40 164 40 29
0 43 -8 82 -50 45 -48 49 -50 101 -50 48 0 60 -4 93 -33 21 -19 44 -49 50 -68
11 -31 15 -34 52 -33 70 1 73 4 73 91 0 92 6 119 28 128 24 9 153 -58 212
-112 l51 -46 152 22 c414 59 759 76 827 41 119 -61 176 -139 205 -282 3 -16
12 -28 20 -28 19 0 19 8 -1 100 -8 41 -19 98 -24 125 -5 28 -18 100 -29 160
-84 466 -100 775 -39 775 6 0 28 -17 48 -38z m-4237 -2738 c30 -4 47 -12 47
-20 0 -8 -23 -63 -51 -122 -28 -59 -62 -134 -76 -167 -14 -33 -33 -78 -42
-100 -10 -22 -24 -56 -31 -75 -7 -19 -28 -68 -47 -108 -18 -41 -33 -79 -33
-86 0 -7 -3 -15 -6 -19 -6 -6 -49 -122 -60 -162 -3 -11 -10 -29 -14 -40 -23
-51 -112 -335 -148 -470 -61 -225 -79 -320 -87 -451 -6 -86 -5 -93 17 -118 28
-32 73 -41 162 -32 l64 7 17 77 c10 42 39 142 66 222 27 80 60 186 74 235 13
50 37 131 54 180 43 132 77 250 96 340 9 44 18 86 21 93 4 15 320 17 343 3 13
-8 13 -20 2 -78 -19 -102 -40 -192 -61 -253 -10 -30 -43 -136 -75 -235 -31
-99 -71 -225 -90 -280 -86 -260 -92 -288 -65 -315 33 -33 106 -10 168 51 53
52 139 248 202 459 17 58 38 123 45 145 7 22 30 94 50 160 21 66 48 153 61
194 13 40 24 78 24 83 0 6 7 25 16 44 l16 34 249 0 249 0 0 -22 c0 -13 -13
-59 -28 -103 l-27 -80 -67 -5 c-37 -3 -71 -9 -76 -15 -4 -5 -23 -57 -42 -115
-142 -448 -183 -554 -274 -710 -112 -195 -239 -312 -394 -366 -80 -27 -253
-48 -322 -38 -122 18 -230 110 -230 195 0 36 -19 19 -35 -33 -10 -29 -24 -68
-32 -85 l-15 -33 -182 0 c-155 0 -187 3 -221 19 -90 42 -125 104 -125 224 0
115 40 360 82 508 19 68 9 79 -109 121 -30 10 -73 21 -97 24 l-42 6 -18 -48
c-24 -67 -45 -121 -67 -171 -11 -24 -19 -48 -19 -54 0 -6 -7 -23 -15 -37 -8
-15 -37 -73 -65 -130 -105 -216 -214 -342 -354 -412 -43 -22 -86 -40 -96 -40
-10 0 -37 -7 -61 -15 -67 -24 -257 -21 -338 5 -122 39 -223 126 -279 240 -26
53 -27 62 -27 210 0 160 0 161 48 270 24 54 93 148 151 206 185 183 423 271
750 277 l128 2 29 80 c57 157 157 360 227 460 194 275 455 438 762 475 76 9
235 6 323 -6z m1877 -243 c0 -11 -14 -57 -31 -103 -17 -46 -40 -111 -51 -145
-24 -73 -12 -69 -235 -65 -136 3 -153 5 -153 20 0 19 82 258 99 291 11 20 19
21 191 21 171 0 180 -1 180 -19z m1930 -228 c0 -8 -9 -35 -60 -187 -22 -66
-38 -126 -36 -133 4 -10 33 -13 110 -13 58 0 107 -4 110 -9 5 -7 -13 -58 -60
-168 l-14 -33 -103 0 c-68 0 -108 -4 -119 -12 -8 -7 -32 -67 -52 -133 -21 -66
-48 -151 -61 -190 -18 -57 -86 -271 -135 -431 -6 -17 -10 -55 -10 -85 0 -47 4
-59 26 -80 24 -22 33 -24 137 -24 106 0 112 -1 109 -20 -5 -32 -73 -198 -87
-215 -12 -13 -42 -14 -202 -10 -186 6 -189 6 -254 37 -58 29 -68 38 -92 85
-49 96 -36 189 68 503 23 72 66 204 95 295 28 91 56 174 62 186 5 11 10 36 11
55 l2 34 -62 3 c-76 4 -77 7 -35 127 l27 80 69 3 c68 3 96 16 96 45 0 7 11 45
24 83 13 38 34 102 45 142 l22 72 184 0 c102 0 185 -3 185 -7z m1906 -63 c7
-7 -2 -46 -27 -123 -41 -121 -46 -147 -26 -147 6 0 134 -1 282 -1 149 0 276
-3 283 -8 9 -5 -11 -56 -78 -194 -49 -102 -90 -189 -90 -192 0 -3 -10 -27 -21
-53 -44 -99 -51 -116 -91 -220 -54 -142 -87 -282 -88 -364 0 -61 2 -69 31 -97
24 -24 40 -31 72 -32 23 0 83 -1 132 -2 l90 -2 -2 -27 c-1 -15 -8 -42 -16 -60
-8 -18 -22 -55 -32 -83 -10 -27 -22 -56 -28 -62 -7 -10 -59 -13 -197 -13 -160
0 -197 3 -253 20 -192 59 -213 194 -88 576 49 152 122 335 191 479 21 44 36
83 34 87 -9 14 -220 9 -232 -5 -11 -13 -40 -98 -162 -477 -80 -250 -110 -340
-120 -365 -5 -11 -23 -64 -40 -118 -36 -117 -63 -173 -89 -187 -25 -13 -298
-13 -306 0 -3 5 0 24 8 42 8 18 28 76 45 128 17 52 36 109 42 125 5 17 60 181
122 365 61 184 139 418 173 520 34 102 83 250 109 329 26 80 52 151 58 158 13
16 298 19 314 3z m-1097 -250 c120 -17 229 -89 274 -182 45 -92 52 -141 38
-272 -20 -200 -49 -302 -141 -491 -148 -306 -372 -492 -615 -510 -198 -15
-354 62 -422 209 -26 56 -28 70 -27 176 3 551 382 1065 794 1078 19 1 64 -3
99 -8z m-2929 -35 c0 -13 -62 -212 -90 -290 -6 -16 -23 -66 -37 -110 -14 -44
-63 -194 -109 -333 -92 -276 -102 -338 -65 -383 17 -22 29 -24 123 -29 96 -5
103 -6 100 -25 -4 -23 -46 -143 -68 -193 l-15 -34 -182 4 c-160 4 -188 7 -230
26 -26 12 -55 29 -66 39 -82 80 -84 224 -6 458 13 39 54 165 90 280 37 116 75
235 85 265 10 30 37 116 60 190 23 74 44 138 47 143 2 4 85 7 184 7 151 0 179
-2 179 -15z m1300 -5 c0 -11 -13 -60 -29 -108 -38 -114 -123 -377 -168 -522
-20 -63 -39 -124 -43 -135 -41 -108 -90 -275 -90 -307 0 -14 12 -35 26 -49 24
-22 32 -24 120 -21 69 2 96 -1 99 -10 3 -7 -12 -62 -34 -123 l-38 -110 -167
-3 c-141 -2 -173 0 -204 15 -51 24 -86 63 -101 114 -7 24 -15 51 -18 59 -4 12
-8 10 -21 -9 -45 -63 -126 -140 -174 -163 -152 -73 -286 -60 -384 38 -61 60
-84 131 -85 257 -2 168 19 286 79 452 30 82 113 247 133 265 3 3 19 25 37 50
88 127 228 237 367 290 80 30 163 37 453 39 236 1 242 1 242 -19z m-3918
-1582 c8 -7 46 -51 84 -98 37 -47 84 -103 104 -125 71 -80 287 -294 360 -356
41 -35 81 -70 89 -77 73 -68 340 -252 519 -356 312 -182 741 -349 1067 -415
28 -6 82 -17 120 -25 71 -15 237 -37 423 -56 274 -27 742 2 1032 65 41 9 113
25 160 35 86 18 316 91 470 150 148 56 361 159 524 252 66 37 121 68 123 68 1
0 11 6 20 14 10 8 70 52 133 97 137 97 202 147 324 252 174 150 270 250 513
541 23 27 40 39 59 39 29 0 54 -25 54 -54 0 -16 -61 -103 -115 -164 -14 -16
-54 -61 -88 -100 -122 -138 -341 -347 -457 -435 -25 -19 -54 -43 -65 -53 -59
-55 -346 -246 -480 -322 -453 -255 -924 -410 -1465 -482 -209 -27 -724 -24
-955 6 -93 12 -199 29 -235 37 -215 47 -263 59 -339 80 -291 83 -630 225 -859
361 -41 24 -77 43 -82 43 -5 0 -10 4 -12 8 -1 4 -23 19 -48 34 -25 14 -89 57
-143 94 -55 38 -110 76 -123 85 -13 8 -38 29 -56 45 -18 16 -49 40 -68 54 -94
65 -382 340 -491 470 -30 35 -64 76 -76 90 -110 128 -121 152 -83 190 23 23
40 25 62 8z"/>
<path d="M6664 7078 c12 -150 34 -290 106 -688 17 -90 35 -167 41 -171 11 -6
76 4 86 15 5 5 -23 162 -52 291 -9 39 -21 92 -25 120 -14 75 -100 418 -109
435 -5 9 -12 30 -16 48 -4 19 -13 32 -22 32 -13 0 -15 -12 -9 -82z"/>
<path d="M4580 6506 c-113 -41 -160 -65 -160 -81 0 -19 17 -19 52 -1 16 8 58
25 95 37 71 23 106 45 97 60 -7 12 -10 12 -84 -15z"/>
<path d="M2487 6494 c-10 -11 3 -24 23 -24 40 0 40 -1 195 -630 47 -193 48
-252 5 -315 -36 -53 -66 -74 -145 -105 -313 -123 -568 -250 -563 -280 6 -28
57 -23 126 13 63 33 361 150 427 167 17 5 89 29 160 53 209 73 744 246 980
318 72 22 150 46 175 53 44 14 211 63 375 111 93 28 180 52 320 90 55 14 129
35 165 45 65 18 240 62 490 121 74 18 232 51 350 74 l215 40 3 28 c4 35 6 35
-203 -8 -93 -20 -190 -40 -215 -45 -90 -18 -277 -60 -380 -86 -58 -14 -123
-29 -145 -34 -111 -25 -468 -120 -735 -196 -83 -24 -110 -31 -175 -49 -33 -9
-79 -23 -103 -31 -23 -8 -53 -14 -65 -13 -21 0 -21 1 3 11 14 5 36 16 50 23
14 7 41 16 60 20 19 4 49 13 65 20 17 8 91 32 165 56 74 23 155 48 180 56 40
13 94 28 185 53 353 95 468 125 560 146 61 14 157 36 215 49 141 33 322 72
395 85 101 19 144 32 156 46 16 20 -11 28 -69 19 -91 -13 -439 -84 -612 -124
-314 -73 -400 -96 -740 -198 -130 -39 -465 -152 -539 -182 -76 -32 -135 -46
-126 -30 7 10 415 211 485 239 19 8 53 23 75 35 l40 20 3 78 c2 53 -1 77 -9
77 -17 0 -112 -59 -348 -217 -117 -79 -215 -143 -217 -143 -3 0 -31 -16 -62
-37 -112 -71 -419 -220 -492 -238 -62 -15 -80 -16 -129 -5 -122 27 -166 84
-271 354 -109 278 -173 431 -182 434 -4 2 -8 10 -8 17 0 31 -90 61 -113 39z"/>
<path d="M6210 6453 c-77 -7 -237 -35 -262 -44 -24 -10 -44 -36 -35 -46 2 -2
51 6 108 17 57 11 121 20 142 20 34 0 38 -3 35 -22 -4 -27 -17 -31 -167 -53
-62 -9 -120 -19 -127 -22 -10 -4 -14 -26 -14 -82 1 -146 42 -353 68 -337 4 2
66 16 137 31 72 14 146 30 165 35 19 5 82 21 140 35 58 15 111 32 118 39 9 9
10 25 1 71 -17 92 -8 229 18 263 15 19 28 26 47 24 25 -3 26 -1 14 18 -7 11
-31 29 -54 40 -34 17 -59 20 -170 18 -71 0 -145 -3 -164 -5z"/>
<path d="M4530 6392 c-142 -55 -134 -47 -138 -141 -3 -49 0 -81 6 -81 5 0 65
20 133 44 l124 44 0 83 c0 67 -3 84 -15 86 -8 1 -58 -14 -110 -35z"/>
<path d="M7050 6210 c-14 -5 -90 -21 -170 -36 -80 -15 -155 -33 -167 -41 -35
-21 -30 -57 7 -55 6 0 348 72 377 79 26 6 37 31 22 49 -13 15 -31 16 -69 4z"/>
<path d="M6980 6013 c-14 -3 -28 -8 -33 -12 -4 -4 2 -47 13 -97 12 -49 25
-114 30 -144 5 -30 16 -84 25 -120 19 -82 35 -153 45 -205 18 -89 85 -322 99
-344 18 -28 32 0 26 52 -24 220 -105 716 -136 835 -12 43 -15 45 -69 35z"/>
<path d="M6520 5793 c-41 -19 -93 -41 -115 -49 -112 -41 -246 -84 -299 -96
-32 -7 -61 -19 -64 -27 -7 -19 40 -110 61 -117 16 -5 117 25 272 82 107 40
226 101 270 139 l40 34 -40 35 c-22 19 -42 35 -45 35 -3 0 -39 -16 -80 -36z"/>
<path d="M5610 5623 c-77 -13 -306 -87 -405 -132 -11 -5 -51 -22 -90 -36 -38
-15 -97 -40 -130 -55 -33 -16 -72 -33 -87 -39 -16 -6 -28 -15 -28 -20 0 -5 98
24 218 64 321 108 444 143 549 160 40 6 63 30 46 46 -12 11 -46 16 -73 12z"/>
<path d="M5650 5443 c-48 -8 -256 -77 -345 -113 -11 -4 -36 -13 -55 -20 -19
-7 -49 -19 -67 -26 -17 -8 -38 -14 -47 -14 -9 0 -16 -4 -16 -9 0 -5 -12 -12
-26 -15 -40 -10 -151 -66 -132 -66 9 0 27 4 40 9 13 5 77 26 143 46 66 20 152
47 190 60 109 36 166 52 287 82 116 28 135 38 116 60 -10 13 -38 15 -88 6z"/>
<path d="M5715 5269 c-87 -17 -396 -122 -527 -178 -50 -21 -64 -37 -25 -28 53
13 179 47 262 72 50 15 151 42 225 61 74 19 138 38 143 43 14 14 0 41 -20 40
-10 -1 -36 -5 -58 -10z"/>
<path d="M5780 5090 c-36 -10 -120 -34 -187 -54 -67 -20 -129 -36 -137 -36 -9
0 -16 -4 -16 -9 0 -5 -16 -12 -35 -15 -38 -8 -57 -26 -26 -26 11 0 57 9 103
21 46 11 103 25 128 29 102 19 226 52 248 66 19 12 21 18 11 30 -14 17 -7 17
-89 -6z"/>
<path d="M5330 4950 c-13 -8 -12 -10 3 -10 9 0 17 5 17 10 0 12 -1 12 -20 0z"/>
<path d="M2020 4306 c-82 -28 -102 -39 -171 -92 -124 -95 -233 -264 -328 -509
-53 -135 -57 -156 -38 -170 10 -7 36 -16 60 -19 23 -4 72 -18 109 -31 75 -27
78 -26 97 40 7 22 18 56 25 75 8 19 19 53 26 75 13 42 29 81 61 154 11 25 27
65 36 90 24 71 108 231 168 317 71 103 67 109 -45 70z"/>
<path d="M830 3301 c-208 -30 -382 -145 -451 -297 -28 -61 -31 -76 -27 -149 3
-71 7 -86 31 -118 95 -125 284 -102 408 48 41 49 100 156 159 290 31 70 72
207 64 215 -14 14 -120 20 -184 11z"/>
<path d="M6907 3533 c-119 -31 -357 -554 -357 -783 0 -79 13 -108 55 -126 32
-13 39 -13 72 2 53 26 117 114 184 254 76 158 73 150 102 245 53 173 66 232
67 293 0 86 -51 134 -123 115z"/>
<path d="M4865 3511 c-160 -75 -337 -449 -372 -787 -4 -44 -2 -54 20 -80 21
-24 33 -29 70 -29 60 0 93 31 158 151 64 120 123 276 209 554 17 58 38 124 46
148 8 24 12 48 9 53 -10 16 -98 9 -140 -10z"/>
</g>
</svg>
